<svg version="1.1" id="Layer_1" xmlns:x="ns_extend;" xmlns:i="ns_ai;" xmlns:graph="ns_graphs;" xmlns="http://www.w3.org/2000/svg" xmlns:xlink="http://www.w3.org/1999/xlink" x="0px" y="0px" viewBox="0 0 39 50.8" style="enable-background:new 0 0 39 50.8;" xml:space="preserve">
 <style type="text/css">
  .st0{fill-rule:evenodd;clip-rule:evenodd;fill:#FFFFFF;}
 </style>
 <metadata>
  <sfw xmlns="ns_sfw;">
   <slices>
   </slices>
   <sliceSourceBounds bottomLeftOrigin="true" height="50.8" width="39" x="31.4" y="-216">
   </sliceSourceBounds>
  </sfw>
 </metadata>
 <g transform="translate(0 .001)">
  <path class="st0" d="M17.3,12.6v12.3L4.2,32.3V5.1L17.3,12.6L17.3,12.6z M21.5,38.4V27.3l17.5-10l-4.3-2.4l-13.2,7.5V11.3
		c0-0.8-0.4-1.5-1.1-1.8L4.5,0.4C3-0.4,1.2,0.1,0.4,1.6C0.1,2,0,2.5,0,3v31.3c0,1.7,1.4,3.1,3,3.1c0.5,0,0.9-0.1,1.3-0.3L4.5,37
		l12.8-7.3v9.9c0,0.8,0.4,1.5,1.1,1.8l16.4,9.3l4.3-2.4L21.5,38.4z">
  </path>
 </g>
</svg>