<svg xmlns="http://www.w3.org/2000/svg" version="1.1" xmlns:xlink="http://www.w3.org/1999/xlink" viewBox="0 0 200 200"><rect width="200" height="200" fill="url('#gradient')"></rect><defs><linearGradient id="gradient" gradientTransform="rotate(45 0.5 0.5)"><stop offset="0%" stop-color="#00e5ff"></stop><stop offset="100%" stop-color="#0d1117"></stop></linearGradient></defs><g><g fill="#0d1117" transform="matrix(5.192352452202826,0,0,5.192352452202826,37.17292597833418,136.92188430740154)" stroke="#b0bec5" stroke-width="0.2"><path d="M6.74-4.46L6.74-14.22L10.16-14.22L10.16-4.46Q10.16-3.11 9.53-2.04Q8.90-0.98 7.77-0.39Q6.64 0.20 5.25 0.20L5.25 0.20Q2.93 0.20 1.64-0.98Q0.35-2.15 0.35-4.30L0.35-4.30L3.79-4.30Q3.79-3.32 4.13-2.88Q4.46-2.44 5.25-2.44L5.25-2.44Q5.97-2.44 6.35-2.97Q6.74-3.51 6.74-4.46L6.74-4.46ZM20.41-4.81L23.82-4.81Q23.75-3.33 23.02-2.19Q22.29-1.05 20.96-0.43Q19.64 0.20 17.94 0.20L17.94 0.20Q15.14 0.20 13.53-1.63Q11.91-3.46 11.91-6.79L11.91-6.79L11.91-7.49Q11.91-9.58 12.64-11.15Q13.37-12.71 14.74-13.57Q16.10-14.42 17.90-14.42L17.90-14.42Q20.49-14.42 22.06-13.06Q23.63-11.70 23.85-9.31L23.85-9.31L20.43-9.31Q20.39-10.61 19.78-11.17Q19.16-11.74 17.90-11.74L17.90-11.74Q16.62-11.74 16.03-10.78Q15.43-9.82 15.40-7.72L15.40-7.72L15.40-6.72Q15.40-4.44 15.97-3.47Q16.54-2.49 17.94-2.49L17.94-2.49Q19.12-2.49 19.75-3.05Q20.37-3.60 20.41-4.81L20.41-4.81Z"></path></g></g></svg>